<svg version="1" xmlns="http://www.w3.org/2000/svg" width="682.667" height="682.667" viewBox="0 0 512.000000 512.000000"><path d="M231 1.1C180.8 6.6 133.6 26 95.5 56.7c-12.9 10.4-34 32.1-43.3 44.5C25.7 136.6 8.8 177 2.4 220.5.2 235.2-.5 263.3.9 278c4.2 43.3 18 83.3 40.5 117.4 41.4 62.9 104.7 103.2 179.1 114.2 14.7 2.2 42.8 2.9 57.5 1.5 43.3-4.2 83.3-18 117.4-40.5 62.9-41.4 103.2-104.7 114.2-179.1 2.2-14.7 2.9-42.8 1.5-57.5-5.1-52.4-23.8-98.8-55.8-138.5-10.4-12.9-32.1-34-44.5-43.3C375.4 25.7 335.3 9 291.5 2.4 279.4.6 242.8-.2 231 1.1zm122.9 99.4c15.5 3.7 31.4 13.9 41.3 26.3 17.7 22.3 22.2 49.4 12.6 76.1-5.3 14.6-9.3 19.3-55 64.7-45.7 45.5-48.2 47.6-63.8 52.8-25.4 8.4-52.1 3.5-73.7-13.6-6.5-5.1-10.3-11.2-10.3-16.4 0-4.2 4-10.4 8-12.5 6.5-3.5 12.8-2.2 19.5 4 9.8 9 19.9 12.5 34.4 11.9 8.6-.3 10.4-.7 17.6-4.1 7.8-3.7 9.2-5 48.1-44 22.1-22.1 41.4-42.2 42.9-44.6 17.9-28.9.4-66.8-33.3-72.2-15.3-2.5-29.6 2.7-43.4 15.9-9.7 9.2-11.3 10.2-16.8 10.2-10.3 0-17.1-9.1-14.1-19 1.4-4.6 18.9-21.8 27.4-26.9 17-10.1 39-13.3 58.6-8.6zm-88 88.6c21 5.3 40.1 20.4 40.1 31.5 0 4.2-4 10.4-8 12.5-6.5 3.5-12.8 2.2-19.5-4-9.8-9-19.9-12.5-34.4-11.9-8.6.3-10.4.7-17.6 4.1-7.8 3.7-9.2 5-48.1 44-22.1 22.1-41.4 42.2-42.9 44.6-17.9 28.9-.4 66.8 33.3 72.2 15.3 2.5 29.6-2.7 43.4-15.9 9.7-9.2 11.3-10.2 16.8-10.2 10.3 0 17.1 9.1 14.1 19-1.4 4.7-18.9 21.8-27.5 26.9-22 13.1-49.6 14.3-73 3.2-25.5-12-41.8-36-44.2-65-1.3-15.2 3.7-34 12.6-47.4 3.4-5.2 16.7-19.1 47.1-49.3 45.9-45.6 48.3-47.6 64.1-52.8 14.3-4.8 28.6-5.3 43.7-1.5z"/></svg>